<svg width="15" height="15" viewBox="0 0 15 15" fill="none" xmlns="http://www.w3.org/2000/svg">
<path d="M13.7884 2.1306C13.003 1.34515 11.9631 0.915851 10.8533 0.915851C9.74348 0.915851 8.70044 1.34833 7.91499 2.13378L7.50477 2.544L7.08819 2.12742C6.30274 1.34197 5.25652 0.906311 4.14671 0.906311C3.04008 0.906311 1.99704 1.33879 1.21477 2.12106C0.429315 2.90652 -0.00316257 3.94955 1.74127e-05 5.05937C1.74127e-05 6.16918 0.435675 7.20903 1.22113 7.99449L7.19313 13.9665C7.27581 14.0492 7.38711 14.0937 7.49523 14.0937C7.60335 14.0937 7.71465 14.0523 7.79733 13.9697L13.7821 8.00721C14.5675 7.22175 15 6.17872 15 5.0689C15.0032 3.95909 14.5739 2.91606 13.7884 2.1306ZM13.1779 7.39983L7.49523 13.0602L1.82533 7.39029C1.20205 6.76701 0.858612 5.94022 0.858612 5.05937C0.858612 4.17851 1.19887 3.35172 1.82215 2.73162C2.44224 2.11152 3.26904 1.76809 4.14671 1.76809C5.02757 1.76809 5.85754 2.11152 6.48082 2.7348L7.19949 3.45347C7.36803 3.62201 7.63833 3.62201 7.80687 3.45347L8.51918 2.74116C9.14246 2.11788 9.97243 1.77445 10.8501 1.77445C11.7278 1.77445 12.5546 2.11788 13.1779 2.73798C13.8011 3.36126 14.1414 4.18805 14.1414 5.0689C14.1446 5.94976 13.8011 6.77655 13.1779 7.39983Z" fill="black"/>
</svg>
