<svg width="16" height="16" viewBox="0 0 16 16" fill="none" xmlns="http://www.w3.org/2000/svg">
<path d="M8 0C3.589 0 0 3.589 0 8C0 12.411 3.589 16 8 16C12.411 16 16 12.411 16 8C16 3.589 12.411 0 8 0ZM8 15.3333C3.95634 15.3333 0.666656 12.0437 0.666656 8C0.666656 3.95634 3.95634 0.666656 8 0.666656C12.0437 0.666656 15.3333 3.95634 15.3333 8C15.3333 12.0437 12.0437 15.3333 8 15.3333Z" fill="black"/>
<path d="M12 7.66666H8.33331V4C8.33331 3.81591 8.18406 3.66666 7.99997 3.66666C7.81588 3.66666 7.66663 3.81591 7.66663 4V7.66666H3.99997C3.81588 7.66666 3.66663 7.81591 3.66663 8C3.66663 8.18409 3.81588 8.33334 3.99997 8.33334H7.66663V12C7.66663 12.1841 7.81588 12.3333 7.99997 12.3333C8.18406 12.3333 8.33331 12.1841 8.33331 12V8.33334H12C12.1841 8.33334 12.3333 8.18409 12.3333 8C12.3333 7.81591 12.1841 7.66666 12 7.66666Z" fill="black"/>
</svg>
