<svg width="20" height="16" viewBox="0 0 20 16" fill="none" xmlns="http://www.w3.org/2000/svg">
<path fill-rule="evenodd" clip-rule="evenodd" d="M16.5 16C18.433 16 20 14.433 20 12.5C20 10.567 18.433 9 16.5 9C14.567 9 13 10.567 13 12.5C13 14.433 14.567 16 16.5 16ZM16.5 14.4444C17.5739 14.4444 18.4444 13.5739 18.4444 12.5C18.4444 11.4261 17.5739 10.5556 16.5 10.5556C15.4261 10.5556 14.5556 11.4261 14.5556 12.5C14.5556 13.5739 15.4261 14.4444 16.5 14.4444Z" fill="white"/>
<line y1="12.5" x2="14" y2="12.5" stroke="white"/>
<path fill-rule="evenodd" clip-rule="evenodd" d="M3.5 7C5.433 7 7 5.433 7 3.5C7 1.567 5.433 0 3.5 0C1.567 0 0 1.567 0 3.5C0 5.433 1.567 7 3.5 7ZM3.5 5.44444C4.57389 5.44444 5.44444 4.57389 5.44444 3.5C5.44444 2.42611 4.57389 1.55556 3.5 1.55556C2.42611 1.55556 1.55556 2.42611 1.55556 3.5C1.55556 4.57389 2.42611 5.44444 3.5 5.44444Z" fill="white"/>
<line x1="6" y1="3.5" x2="20" y2="3.5" stroke="white"/>
</svg>
