<svg width="17" height="17" viewBox="0 0 17 17" fill="none" xmlns="http://www.w3.org/2000/svg">
<path d="M2.60207 8.67346C2.41045 8.67346 2.25513 8.82882 2.25513 9.0204V14.2245C2.25513 14.4161 2.41045 14.5714 2.60207 14.5714H9.1939C9.38548 14.5714 9.54084 14.4161 9.54084 14.2245V9.0204C9.54084 8.82882 9.38548 8.67346 9.1939 8.67346H2.60207ZM5.55105 13.8775H2.949V11.9694H5.55105V13.8775ZM5.55105 11.2755H2.949V9.36734H5.55105V11.2755ZM8.84696 13.8775H6.24492V11.9694H8.84696V13.8775ZM8.84696 11.2755H6.24492V9.36734H8.84696V11.2755Z" fill="white"/>
<path d="M12.6633 7.11224H10.7551V7.80612H12.6633V7.11224Z" fill="white"/>
<path d="M13.8775 7.11224H13.1837V7.80612H13.8775V7.11224Z" fill="white"/>
<path d="M16.6531 6.41836C16.8446 6.41836 17 6.263 17 6.07142V0.86734C17 0.484735 16.6887 0.173462 16.3061 0.173462H0.693878C0.311273 0.173462 0 0.484735 0 0.86734V6.07142C0 6.263 0.155325 6.41836 0.346939 6.41836H1.04082V16.1326H0V16.8265H17V16.1326H15.9592V6.41836H16.6531ZM8.84694 0.86734H12.3163V5.72448H8.84694V0.86734ZM4.68367 0.86734H8.15306V5.72448H4.68367V0.86734ZM0.693878 5.72448V0.86734H3.9898V5.72448H1.38776H0.693878ZM14.051 15.9592H10.5816V9.36734H11.9694V15.0918H12.6633V9.36734H14.051V15.9592ZM15.2653 16.1326H14.7449V9.0204C14.7449 8.82882 14.5895 8.67346 14.398 8.67346H10.2347C10.0431 8.67346 9.88776 8.82882 9.88776 9.0204V16.1326H1.73469V7.80612H9.36735V7.11224H1.73469V6.41836H15.2653V16.1326ZM13.0102 5.72448V0.86734H16.3061V5.72448H13.0102Z" fill="white"/>
</svg>
