<svg width="24" height="25" viewBox="0 0 24 25" fill="none" xmlns="http://www.w3.org/2000/svg">
<path fill-rule="evenodd" clip-rule="evenodd" d="M11.8154 0.151306C7.57637 0.151306 3.7564 3.10436 3.7564 7.05902V12.2847C3.7564 13.0235 3.53767 13.7458 3.1278 14.3605L0.594971 18.1586C0.41972 18.4219 0.31923 18.7279 0.304216 19.0439C0.289202 19.3598 0.360228 19.6739 0.509718 19.9527C0.659209 20.2315 0.881559 20.4645 1.15306 20.6268C1.42456 20.7891 1.73502 20.8747 2.05135 20.8745H7.78591C7.78591 21.4036 7.89013 21.9276 8.09263 22.4165C8.29513 22.9054 8.59195 23.3496 8.96612 23.7237C9.34029 24.0979 9.7845 24.3947 10.2734 24.5972C10.7623 24.7997 11.2862 24.904 11.8154 24.904C12.3446 24.904 12.8686 24.7997 13.3574 24.5972C13.8463 24.3947 14.2905 24.0979 14.6647 23.7237C15.0389 23.3496 15.3357 22.9054 15.5382 22.4165C15.7407 21.9276 15.8449 21.4036 15.8449 20.8745H21.5806C21.8969 20.8744 22.2073 20.7886 22.4787 20.626C22.75 20.4635 22.9722 20.2303 23.1214 19.9514C23.2707 19.6725 23.3414 19.3584 23.3261 19.0424C23.3109 18.7265 23.2101 18.4206 23.0347 18.1574L20.5019 14.3605C20.0924 13.7457 19.8741 13.0234 19.8744 12.2847V7.05902C19.8744 3.10436 16.0533 0.151306 11.8154 0.151306ZM5.48333 7.05902C5.48333 4.33738 8.22685 1.87824 11.8154 1.87824C15.404 1.87824 18.1475 4.33738 18.1475 7.05902V12.2847C18.1475 13.3646 18.4675 14.4192 19.0662 15.3184L21.5979 19.1164C21.6002 19.1198 21.6014 19.1239 21.6013 19.128L21.6002 19.1349L21.5956 19.1418L21.5887 19.1464L21.5806 19.1475H2.0502L2.04214 19.1464L2.03523 19.1418L2.03062 19.1349L2.02947 19.1268L2.03293 19.1153L4.56576 15.3184C5.16436 14.4199 5.48363 13.3643 5.48333 12.2847V7.05902ZM14.118 20.8745H9.51284C9.51284 21.4851 9.75543 22.0708 10.1872 22.5026C10.6191 22.9344 11.2047 23.177 11.8154 23.177C12.4261 23.177 13.0118 22.9344 13.4436 22.5026C13.8754 22.0708 14.118 21.4851 14.118 20.8745Z" fill="#707070"/>
</svg>
