<svg width="17" height="24" viewBox="0 0 17 24" fill="none" xmlns="http://www.w3.org/2000/svg">
<path fill-rule="evenodd" clip-rule="evenodd" d="M0.75647 2.3173C0.75647 1.20516 1.65908 0.302551 2.77122 0.302551H14.8597C15.9719 0.302551 16.8745 1.20516 16.8745 2.3173V22.4648C16.8745 22.6274 16.8286 22.7867 16.742 22.9243C16.6555 23.0619 16.5319 23.1723 16.3854 23.2428C16.2389 23.3133 16.0754 23.341 15.9139 23.3227C15.7524 23.3044 15.5993 23.2409 15.4722 23.1395L8.81547 17.8136L2.15989 23.1383C2.03294 23.24 1.87983 23.3038 1.71821 23.3224C1.55658 23.3409 1.39302 23.3134 1.24635 23.243C1.09968 23.1726 0.975883 23.0622 0.889213 22.9245C0.802543 22.7869 0.756528 22.6275 0.75647 22.4648V2.3173ZM2.77122 2.02948C2.69489 2.02948 2.62168 2.05981 2.5677 2.11378C2.51372 2.16776 2.4834 2.24097 2.4834 2.3173V20.6688L8.27552 16.0337C8.42871 15.911 8.61916 15.8441 8.81547 15.8441C9.01178 15.8441 9.20224 15.911 9.35543 16.0337L15.1475 20.6688V2.3173C15.1475 2.24097 15.1172 2.16776 15.0632 2.11378C15.0093 2.05981 14.9361 2.02948 14.8597 2.02948H2.77122Z" fill="#707070"/>
</svg>
