<svg width="26" height="27" viewBox="0 0 26 27" fill="none" xmlns="http://www.w3.org/2000/svg">
<g clip-path="url(#clip0_149_82)">
<path d="M21.0856 14.2729C20.6683 14.2729 20.3302 14.6265 20.3302 15.0626V23.0765H4.99892V15.0626C4.99892 14.6265 4.66081 14.2729 4.24354 14.2729C3.82627 14.2729 3.48816 14.6265 3.48816 15.0626V23.8663C3.48816 24.3024 3.82627 24.656 4.24354 24.656H21.0856C21.5029 24.656 21.841 24.3024 21.841 23.8663V15.0626C21.841 14.6265 21.5028 14.2729 21.0856 14.2729Z" fill="#707070"/>
<path d="M25.107 14.5042L13.1975 2.05482C12.9026 1.74641 12.4243 1.74651 12.1293 2.05482L0.221251 14.5042C-0.0737503 14.8126 -0.0737503 15.3127 0.221251 15.621C0.368802 15.7751 0.562179 15.8523 0.755456 15.8523C0.948833 15.8523 1.14211 15.7752 1.28966 15.621L12.6636 3.72996L24.0389 15.621C24.3338 15.9294 24.8121 15.9293 25.1072 15.6209C25.402 15.3126 25.402 14.8125 25.107 14.5042Z" fill="#707070"/>
</g>
<defs>
<clipPath id="clip0_149_82">
<rect width="25.3283" height="26.4796" fill="white"/>
</clipPath>
</defs>
</svg>
