<svg width="21" height="23" viewBox="0 0 21 23" fill="none" xmlns="http://www.w3.org/2000/svg">
<path fill-rule="evenodd" clip-rule="evenodd" d="M10.4056 0.878235C9.05155 0.87782 7.73305 1.31145 6.64359 2.11549C5.55413 2.91952 4.7511 4.05161 4.35236 5.3456C3.95361 6.63958 3.98016 8.02731 4.4281 9.30509C4.87604 10.5829 5.72179 11.6834 6.8412 12.4452C4.8984 13.1578 3.21329 14.4355 2.00276 16.1138C0.792216 17.7921 0.111637 19.7943 0.0486067 21.8627C0.0417365 22.0917 0.12612 22.3141 0.283193 22.4809C0.440266 22.6477 0.657162 22.7452 0.886168 22.7521C1.11517 22.759 1.33753 22.6746 1.50432 22.5175C1.67111 22.3604 1.76867 22.1435 1.77554 21.9145C1.8441 19.6712 2.78344 17.5427 4.39451 15.9801C6.00559 14.4175 8.16178 13.5437 10.4062 13.5437C12.6505 13.5437 14.8067 14.4175 16.4178 15.9801C18.0289 17.5427 18.9682 19.6712 19.0368 21.9145C19.0376 22.0295 19.0615 22.1431 19.1069 22.2488C19.1522 22.3544 19.2182 22.4499 19.301 22.5297C19.3838 22.6095 19.4817 22.6719 19.5889 22.7134C19.6962 22.7548 19.8106 22.7744 19.9255 22.7711C20.0405 22.7677 20.1536 22.7414 20.2582 22.6937C20.3628 22.6461 20.4569 22.578 20.5348 22.4935C20.6128 22.409 20.6731 22.3098 20.7122 22.2017C20.7513 22.0935 20.7684 21.9787 20.7626 21.8639C20.6997 19.7953 20.0193 17.7928 18.8087 16.1143C17.5982 14.4357 15.9129 13.1579 13.97 12.4452C15.0894 11.6834 15.9351 10.5829 16.3831 9.30509C16.831 8.02731 16.8575 6.63958 16.4588 5.3456C16.0601 4.05161 15.257 2.91952 14.1676 2.11549C13.0781 1.31145 11.7596 0.87782 10.4056 0.878235ZM5.80043 7.21031C5.80043 5.98895 6.28562 4.81761 7.14925 3.95398C8.01288 3.09035 9.18422 2.60516 10.4056 2.60516C11.6269 2.60516 12.7983 3.09035 13.6619 3.95398C14.5255 4.81761 15.0107 5.98895 15.0107 7.21031C15.0107 8.43167 14.5255 9.60301 13.6619 10.4666C12.7983 11.3303 11.6269 11.8155 10.4056 11.8155C9.18422 11.8155 8.01288 11.3303 7.14925 10.4666C6.28562 9.60301 5.80043 8.43167 5.80043 7.21031Z" fill="#707070"/>
</svg>
