<svg width="121" height="121" viewBox="0 0 121 121" fill="none" xmlns="http://www.w3.org/2000/svg">
<g clip-path="url(#clip0_28_175)">
<path d="M120.721 59.1524C120.173 57.828 118.88 56.9643 117.447 56.9643H79.4821C78.5421 56.9643 77.6407 57.3379 76.976 58.0026L60.5001 74.4784L44.0243 58.0026C43.3596 57.3379 42.4581 56.9643 41.5182 56.9643H3.55328C2.11969 56.9643 0.827157 57.828 0.278719 59.1524C-0.26972 60.4768 0.0334455 62.0014 1.04715 63.0151L18.9908 80.959V117.456C18.9908 119.413 20.5778 121 22.5353 121H98.4643C100.422 121 102.009 119.413 102.009 117.456V80.959L119.953 63.0151C120.967 62.0014 121.27 60.4768 120.721 59.1524ZM12.11 64.0532H40.0494L51.9427 75.9465H24.0033L12.11 64.0532ZM56.9555 113.911H26.0797V83.0354H56.9555V113.911ZM94.9199 113.911H64.0443V83.0354H94.9201V113.911H94.9199ZM96.9962 75.9465H69.0568L80.9502 64.0532H108.89L96.9962 75.9465Z" fill="#C0C0C0"/>
<path d="M45.314 45.0707C47.2715 45.0707 48.8584 43.4838 48.8584 41.5263C48.8584 39.5688 47.2715 37.9819 45.314 37.9819C33.3211 37.9819 27.8587 32.0663 27.8587 26.5701C27.8587 22.5509 30.9083 18.4957 37.7212 18.4957C45.3459 18.4957 50.8905 24.6034 54.2015 36.6489C56.9134 46.5152 56.9555 56.6132 56.9555 56.7141C56.9564 58.6708 58.5429 60.2566 60.4999 60.2566C62.4574 60.2566 64.0443 58.6697 64.0443 56.7122C64.0443 56.2665 64.0105 45.6735 61.072 34.8992C55.7766 15.4827 45.4508 11.4068 37.7212 11.4068C26.5924 11.4068 20.7699 19.0349 20.7699 26.5701C20.7699 36.3671 29.7257 45.0707 45.314 45.0707Z" fill="#C0C0C0"/>
<path d="M71.8893 37.9819C69.9318 37.9819 68.3448 39.5688 68.3448 41.5263C68.3448 43.4838 69.9318 45.0707 71.8893 45.0707C90.9861 45.0707 102.098 34.7217 102.098 22.8364C102.098 14.5562 95.5983 3.81378 79.4823 3.81378C77.5249 3.81378 75.9379 5.40073 75.9379 7.35819C75.9379 9.31565 77.5249 10.9026 79.4823 10.9026C103.516 11.7202 98.7944 38.7309 71.8893 37.9819Z" fill="#C0C0C0"/>
<path d="M61.7902 9.86456C63.1101 11.2374 65.483 11.2377 66.8027 9.86456L70.599 6.06802C73.7965 2.62569 69.03 -2.14296 65.5862 1.05551L64.2963 2.34568L63.0061 1.05551C59.5624 -2.14296 54.7961 2.62592 57.9936 6.06802C57.9936 6.06826 61.7902 9.86456 61.7902 9.86456Z" fill="#C0C0C0"/>
</g>
<defs>
<clipPath id="clip0_28_175">
<rect width="121" height="121" fill="white"/>
</clipPath>
</defs>
</svg>
