<svg width="31" height="31" viewBox="0 0 31 31" fill="none" xmlns="http://www.w3.org/2000/svg">
<path d="M6.87025 18.7337L5.79119 22.762L1.84722 22.8454C0.668559 20.6593 0 18.158 0 15.5C0 12.9297 0.625086 10.5059 1.73309 8.3717H1.73394L5.24518 9.01544L6.78331 12.5056C6.46138 13.4441 6.28592 14.4516 6.28592 15.5C6.28604 16.6378 6.49214 17.7279 6.87025 18.7337Z" fill="#FBBB00"/>
<path d="M30.7292 12.6044C30.9072 13.542 31 14.5104 31 15.5C31 16.6097 30.8833 17.6922 30.6611 18.7363C29.9065 22.2894 27.9349 25.3919 25.2037 27.5875L25.2029 27.5866L20.7803 27.3609L20.1544 23.4536C21.9667 22.3907 23.383 20.7274 24.129 18.7363H15.8408V12.6044H24.2499H30.7292Z" fill="#518EF8"/>
<path d="M25.2028 27.5866L25.2037 27.5874C22.5474 29.7225 19.1731 31 15.5 31C9.59723 31 4.46522 27.7007 1.84723 22.8455L6.87026 18.7337C8.17922 22.2272 11.5492 24.714 15.5 24.714C17.1982 24.714 18.7891 24.2549 20.1542 23.4535L25.2028 27.5866Z" fill="#28B446"/>
<path d="M25.3936 3.56839L20.3723 7.67928C18.9594 6.79614 17.2893 6.28598 15.5 6.28598C11.4598 6.28598 8.02676 8.88689 6.78337 12.5056L1.73394 8.3717H1.73309C4.31275 3.39807 9.50949 0 15.5 0C19.2609 0 22.7092 1.33966 25.3936 3.56839Z" fill="#F14336"/>
</svg>
